<svg fill="none" height="100%" width="100%" viewBox="0 0 796 864" xmlns:xlink="http://www.w3.org/1999/xlink" xmlns="http://www.w3.org/2000/svg"><defs><radialGradient id="i0" gradientUnits="userSpaceOnUse" spreadMethod="pad" cx="-163.03" cy="-184.371" r="478.785" fy="-184.371" fx="-163.03"><stop offset="21.3%" stop-color="#e3ecff" /><stop offset="53.2%" stop-color="#dfe7f9" /><stop offset="67.4%" stop-color="#dae1f3" /><stop offset="83.7%" stop-color="#d3dcee" /><stop offset="100%" stop-color="#ccd6e9" /></radialGradient><linearGradient id="i1" gradientUnits="userSpaceOnUse" spreadMethod="pad" x2="-0.583" y2="14.948" x1="-0.583" y1="-16.65"><stop offset="0%" stop-color="#ffffff" /><stop offset="37.2%" stop-color="#e4eaf7" /><stop offset="74.5%" stop-color="#cad5ef" /><stop offset="82.3%" stop-color="#d5dff5" /><stop offset="100%" stop-color="#e0e8fb" /></linearGradient><radialGradient id="i2" gradientUnits="userSpaceOnUse" spreadMethod="pad" cx="215.962" cy="89.492" r="428.999" fy="89.492" fx="215.962"><stop offset="11.9%" stop-color="#ebf4ff" /><stop offset="19.3%" stop-color="#dfe9fc" /><stop offset="67.4%" stop-color="#d3def9" /><stop offset="83.7%" stop-color="#c5d5f2" /><stop offset="100%" stop-color="#b7cdeb" /></radialGradient><linearGradient id="i3" gradientUnits="userSpaceOnUse" spreadMethod="pad" x2="-27.647" y2="-15.465" x1="72.625" y1="-31.477"><stop offset="21.3%" stop-color="#e3ecff" /><stop offset="53.2%" stop-color="#dfe7f9" /><stop offset="67.4%" stop-color="#dae1f3" /><stop offset="83.7%" stop-color="#c7d4eb" /><stop offset="100%" stop-color="#b5c7e2" /></linearGradient><linearGradient id="i4" gradientUnits="userSpaceOnUse" spreadMethod="pad" x2="19.75" y2="2.511" x1="-57.522" y1="-6.977"><stop offset="21.3%" stop-color="#e3ecff" /><stop offset="53.2%" stop-color="#dfe7f9" /><stop offset="67.4%" stop-color="#dae1f3" /><stop offset="83.7%" stop-color="#c7d4eb" /><stop offset="100%" stop-color="#b5c7e2" /></linearGradient></defs><g id="i5"><g transform="translate(311.03,426.786)"><animateTransform repeatCount="indefinite" type="translate" attributeName="transform" dur="3.033s" begin="0s" calcMode="spline" values="311.03 426.786; 311.03 414.786; 311.03 428.786; 311.03 426.786; 311.03 426.786" keyTimes="0; 0.488495; 0.797538; 0.967033; 1" keySplines="0.333 0 0.219 1; 0.41 0 0.54 1; 0.775 0 0.667 1; 0 0 1 1" fill="freeze" /><g transform="scale(1,1) translate(-495.03,-498.786)"><g id="i6" transform="matrix(1,0,0,1,503.03,645.786)"><path fill="url(#i0)" d="M-3.927,251.86C-115.307,250.867,-247.532,-109.276,-143.348,-211.839C-136.058,-219.023,-127.538,-224.931,-118.365,-229.791C-73.321,-253.578,-11.926,-252.088,3.698,-251.698C17.998,-251.343,66.529,-250.154,107.472,-232.238C121.958,-225.905,135.494,-217.48,146.233,-206.234C247.769,-99.963,106.726,252.853,-3.927,251.86Z" /></g><g id="i7" transform="matrix(1,0,0,1,497.583,410.65)"><path fill="url(#i1)" d="M112.918,3.899C80.664,11.897,39.386,16.727,-5.621,16.727C-45.557,16.727,-82.547,12.923,-112.918,6.472C-67.874,-18.53,-6.479,-16.963,9.145,-16.553C23.445,-16.18,71.975,-14.932,112.918,3.899Z" /></g></g></g></g><g id="i5"><g transform="translate(311.03,426.786)"><animateTransform repeatCount="indefinite" type="translate" attributeName="transform" dur="3.033s" begin="0s" calcMode="spline" values="311.03 426.786; 311.03 414.786; 311.03 428.786; 311.03 426.786; 311.03 426.786" keyTimes="0; 0.488495; 0.797538; 0.967033; 1" keySplines="0.333 0 0.219 1; 0.41 0 0.54 1; 0.775 0 0.667 1; 0 0 1 1" fill="freeze" /><g transform="scale(1,1) translate(-495.03,-498.786)"><g id="i8"><g transform="translate(502.038,377.704)"><g transform="rotate(0)"><animateTransform repeatCount="indefinite" type="rotate" attributeName="transform" dur="3.033s" begin="0s" calcMode="spline" values="0; -13; -13; 0; 0" keyTimes="0; 0.153846; 0.659341; 0.813187; 1" keySplines="0.333 0 0.667 1; 0.333 0 0.667 1; 0.333 0 0.667 1; 0 0 1 1" fill="freeze" /><g transform="scale(1,1) translate(1,-102)"><g id="i7"><path fill="url(#i2)" d="M153.454,91.002C124.87,120.934,73.802,121.692,34.087,123.182C-11.24,124.882,-62.754,123.906,-106.499,111.434C-139.183,102.116,-166.09,79.44,-172.853,47.583C-183.515,-2.639,-153.988,-62.677,-110.882,-92.924C-87.064,-109.637,-57.909,-119.131,-28.276,-122.433C17.142,-127.494,66.625,-118.756,105.443,-95.844C144.384,-72.86,163.833,-34.621,172.329,6.355C178.341,35.35,175.316,68.108,153.454,91.002Z" /></g></g></g></g></g></g></g></g><g id="i5"><g transform="translate(311.03,426.786)"><animateTransform repeatCount="indefinite" type="translate" attributeName="transform" dur="3.033s" begin="0s" calcMode="spline" values="311.03 426.786; 311.03 414.786; 311.03 428.786; 311.03 426.786; 311.03 426.786" keyTimes="0; 0.488495; 0.797538; 0.967033; 1" keySplines="0.333 0 0.219 1; 0.41 0 0.54 1; 0.775 0 0.667 1; 0 0 1 1" fill="freeze" /><g transform="scale(1,1) translate(-495.03,-498.786)"><g id="i9"><g transform="translate(661.125,456.977)"><g transform="rotate(0)"><animateTransform repeatCount="indefinite" type="rotate" attributeName="transform" dur="3.033s" begin="0s" calcMode="spline" values="0; -126; -114; -132; -115; -126; -121; -114; -126; 0; 0" keyTimes="0; 0.153846; 0.241758; 0.307692; 0.373626; 0.43956; 0.505494; 0.571428; 0.659341; 0.824176; 1" keySplines="0.333 0 0.667 1; 0.333 0 0.667 1; 0.333 0 0.667 1; 0.333 0 0.667 1; 0.333 0 0.667 1; 0.333 0 0.667 1; 0.333 0 0.667 1; 0.333 0 0.667 1; 0.333 0 0.667 1; 0 0 1 1" fill="freeze" /><g transform="scale(1,1) translate(14,133)"><g id="i7"><path fill="url(#i3)" d="M0.793,-155.311C73.767,-127.013,34.372,157.695,20.843,157.766C18.861,157.777,17.919,151.677,13.392,129.948C-24.095,-49.963,-63.093,-128.622,-32.814,-151.613C-23.794,-158.462,-9.853,-159.439,0.793,-155.311Z" /></g></g></g></g></g></g></g></g><g id="i5"><g transform="translate(311.03,426.786)"><animateTransform repeatCount="indefinite" type="translate" attributeName="transform" dur="3.033s" begin="0s" calcMode="spline" values="311.03 426.786; 311.03 414.786; 311.03 428.786; 311.03 426.786; 311.03 426.786" keyTimes="0; 0.488495; 0.797538; 0.967033; 1" keySplines="0.333 0 0.219 1; 0.41 0 0.54 1; 0.775 0 0.667 1; 0 0 1 1" fill="freeze" /><g transform="scale(1,1) translate(-495.03,-498.786)"><g transform="matrix(1,0,0,1,322.522,589.977)" id="i10"><g id="i7"><path fill="url(#i4)" d="M-0.793,-155.311C-73.767,-127.013,-34.372,157.695,-20.843,157.766C-18.861,157.777,-17.919,151.677,-13.392,129.948C24.095,-49.963,63.093,-128.622,32.814,-151.613C23.794,-158.462,9.853,-159.439,-0.793,-155.311Z" /></g></g></g></g></g><g id="i5"><g transform="translate(311.03,426.786)"><animateTransform repeatCount="indefinite" type="translate" attributeName="transform" dur="3.033s" begin="0s" calcMode="spline" values="311.03 426.786; 311.03 414.786; 311.03 428.786; 311.03 426.786; 311.03 426.786" keyTimes="0; 0.488495; 0.797538; 0.967033; 1" keySplines="0.333 0 0.219 1; 0.41 0 0.54 1; 0.775 0 0.667 1; 0 0 1 1" fill="freeze" /><g transform="scale(1,1) translate(-495.03,-498.786)"><g id="i8"><g transform="translate(502.038,377.704)"><g transform="rotate(0)"><animateTransform repeatCount="indefinite" type="rotate" attributeName="transform" dur="3.033s" begin="0s" calcMode="spline" values="0; -13; -13; 0; 0" keyTimes="0; 0.153846; 0.659341; 0.813187; 1" keySplines="0.333 0 0.667 1; 0.333 0 0.667 1; 0.333 0 0.667 1; 0 0 1 1" fill="freeze" /><g transform="scale(1,1) translate(1,-102)"><g id="i11"><g transform="translate(1.015,38.974)"><animateTransform repeatCount="indefinite" type="translate" attributeName="transform" dur="3.033s" begin="0s" calcMode="spline" values="1.015 38.974; 1.015 32.974; 1.015 32.974; 1.015 38.974; 1.015 38.974" keyTimes="0; 0.484626; 0.791209; 0.989011; 1" keySplines="0.333 0 0.219 1; 0 0 1 1; 0.167 0 0.667 1; 0 0 1 1" fill="freeze" /><g transform="scale(1,1) translate(0,-42)"><g id="i7"><path fill="#0d131e" d="M-96.078,75.614C-125.873,69.462,-145.664,38.626,-132.775,8C-109.909,-46.331,-71.309,-83.946,-0.13,-83.946C82.67,-83.946,113.817,-42.711,133.825,12.868C144.394,42.225,125.328,69.759,97.489,75.91C66.535,82.749,33.437,84.018,-0.54,83.943C-33.623,83.87,-65.728,81.881,-96.078,75.614Z" /></g></g></g></g></g></g></g></g></g></g></g><g id="i5"><g transform="translate(311.03,426.786)"><animateTransform repeatCount="indefinite" type="translate" attributeName="transform" dur="3.033s" begin="0s" calcMode="spline" values="311.03 426.786; 311.03 414.786; 311.03 428.786; 311.03 426.786; 311.03 426.786" keyTimes="0; 0.488495; 0.797538; 0.967033; 1" keySplines="0.333 0 0.219 1; 0.41 0 0.54 1; 0.775 0 0.667 1; 0 0 1 1" fill="freeze" /><g transform="scale(1,1) translate(-495.03,-498.786)"><g id="i8"><g transform="translate(502.038,377.704)"><g transform="rotate(0)"><animateTransform repeatCount="indefinite" type="rotate" attributeName="transform" dur="3.033s" begin="0s" calcMode="spline" values="0; -13; -13; 0; 0" keyTimes="0; 0.153846; 0.659341; 0.813187; 1" keySplines="0.333 0 0.667 1; 0.333 0 0.667 1; 0.333 0 0.667 1; 0 0 1 1" fill="freeze" /><g transform="scale(1,1) translate(1,-102)"><g id="i11"><g transform="translate(1.015,38.974)"><animateTransform repeatCount="indefinite" type="translate" attributeName="transform" dur="3.033s" begin="0s" calcMode="spline" values="1.015 38.974; 1.015 32.974; 1.015 32.974; 1.015 38.974; 1.015 38.974" keyTimes="0; 0.484626; 0.791209; 0.989011; 1" keySplines="0.333 0 0.219 1; 0 0 1 1; 0.167 0 0.667 1; 0 0 1 1" fill="freeze" /><g transform="scale(1,1) translate(0,-42)"><g id="i12"><g transform="translate(-58.054,2.235)"><animateTransform repeatCount="indefinite" type="translate" attributeName="transform" dur="3.033s" begin="0s" calcMode="spline" values="-58.054 2.235; -58.054 2.235; -46.054 -1.765; -46.054 -1.765; -58.054 2.235; -58.054 2.235" keyTimes="0; 0.076923; 0.307692; 0.516483; 0.758242; 1" keySplines="0 0 1 1; 0.333 0 0.219 0.957; 0 0 1 1; 0.167 0 0.833 1; 0 0 1 1" fill="freeze" /><g transform="rotate(-6)"><animateTransform repeatCount="indefinite" type="rotate" attributeName="transform" dur="3.033s" begin="0s" calcMode="spline" values="-6; -6; 7; 7; -6; -6" keyTimes="0; 0.076923; 0.307692; 0.516483; 0.758242; 1" keySplines="0 0 1 1; 0.333 0 0.219 0.958; 0.167 0 0.219 0.512; 0.167 0 0.833 1; 0 0 1 1" fill="freeze" /><g transform="scale(1,1)"><animateTransform repeatCount="indefinite" type="scale" attributeName="transform" dur="3.033s" begin="0s" calcMode="spline" values="1 1; 1 1; 1 0.65; 1 0.8; 1 1; 1 1" keyTimes="0; 0.076923; 0.307692; 0.516483; 0.758242; 1" keySplines="0 0 1 1; 0.333 0 0.677 1; 0.15 0 0.246 1; 0.167 0 0.833 1; 0 0 1 1" fill="freeze" /><g transform="translate(0,0)"><g id="i7"><path fill="#04e9d7" d="M42.052,7.522C39.126,23.878,17.927,33.769,-5.297,29.615C-28.521,25.461,-44.978,8.834,-42.052,-7.522C-39.126,-23.878,-17.927,-33.769,5.297,-29.615C28.521,-25.461,44.978,-8.834,42.052,7.522Z" /></g></g></g></g></g></g></g></g></g></g></g></g></g></g></g></g><g id="i5"><g transform="translate(311.03,426.786)"><animateTransform repeatCount="indefinite" type="translate" attributeName="transform" dur="3.033s" begin="0s" calcMode="spline" values="311.03 426.786; 311.03 414.786; 311.03 428.786; 311.03 426.786; 311.03 426.786" keyTimes="0; 0.488495; 0.797538; 0.967033; 1" keySplines="0.333 0 0.219 1; 0.41 0 0.54 1; 0.775 0 0.667 1; 0 0 1 1" fill="freeze" /><g transform="scale(1,1) translate(-495.03,-498.786)"><g id="i8"><g transform="translate(502.038,377.704)"><g transform="rotate(0)"><animateTransform repeatCount="indefinite" type="rotate" attributeName="transform" dur="3.033s" begin="0s" calcMode="spline" values="0; -13; -13; 0; 0" keyTimes="0; 0.153846; 0.659341; 0.813187; 1" keySplines="0.333 0 0.667 1; 0.333 0 0.667 1; 0.333 0 0.667 1; 0 0 1 1" fill="freeze" /><g transform="scale(1,1) translate(1,-102)"><g id="i11"><g transform="translate(1.015,38.974)"><animateTransform repeatCount="indefinite" type="translate" attributeName="transform" dur="3.033s" begin="0s" calcMode="spline" values="1.015 38.974; 1.015 32.974; 1.015 32.974; 1.015 38.974; 1.015 38.974" keyTimes="0; 0.484626; 0.791209; 0.989011; 1" keySplines="0.333 0 0.219 1; 0 0 1 1; 0.167 0 0.667 1; 0 0 1 1" fill="freeze" /><g transform="scale(1,1) translate(0,-42)"><g id="i13"><g transform="translate(61.005,2.235)"><animateTransform repeatCount="indefinite" type="translate" attributeName="transform" dur="3.033s" begin="0s" calcMode="spline" values="61.005 2.235; 61.005 2.235; 55.005 -1.765; 55.005 -1.765; 61.005 2.235; 61.005 2.235" keyTimes="0; 0.076923; 0.307692; 0.516483; 0.758242; 1" keySplines="0 0 1 1; 0.333 0 0.219 0.925; 0 0 1 1; 0.167 0 0.833 1; 0 0 1 1" fill="freeze" /><g transform="rotate(6)"><animateTransform repeatCount="indefinite" type="rotate" attributeName="transform" dur="3.033s" begin="0s" calcMode="spline" values="6; 6; -7; -7; 6; 6" keyTimes="0; 0.076923; 0.307692; 0.516483; 0.758242; 1" keySplines="0 0 1 1; 0.333 0 0.219 1; 0.167 0 0.219 0.512; 0.167 0 0.833 1; 0 0 1 1" fill="freeze" /><g transform="scale(1,1)"><animateTransform repeatCount="indefinite" type="scale" attributeName="transform" dur="3.033s" begin="0s" calcMode="spline" values="1 1; 1 1; 1 0.65; 1 0.8; 1 1; 1 1" keyTimes="0; 0.076923; 0.307692; 0.516483; 0.758242; 1" keySplines="0 0 1 1; 0.333 0 0.219 1; 0.167 0 0.219 1; 0.167 0 0.833 1; 0 0 1 1" fill="freeze" /><g transform="translate(0,0)"><g id="i7"><path fill="#04e9d7" d="M-42.052,7.522C-39.126,23.878,-17.927,33.769,5.297,29.615C28.521,25.461,44.978,8.834,42.052,-7.522C39.126,-23.878,17.927,-33.769,-5.297,-29.615C-28.521,-25.461,-44.978,-8.834,-42.052,7.522Z" /></g></g></g></g></g></g></g></g></g></g></g></g></g></g></g></g></svg>